# xmcd
#
# Track frame offsets:
#	150
#	12299
#	23923
#	34420
#	47982
#	59359
#	71232
#	81191
#	94508
#	106432
#	119135
#	132307
#
# Disc length: 1933 seconds
#
# Revision: 1
# Processed by: cddbd v1.5.2PL0 Copyright (c) Steve Scherf et al.
# Submitted via: audiograbber 1.83.01
#
DISCID=ad078b0c
DTITLE=Porter Wagoner - Confessions Of A Broken Man
DYEAR=1966
DGENRE=Country
TTITLE0=Men With Broken Hearts
TTITLE1=I Just Came To Smell The Flowers
TTITLE2=May You Never Be Alone
TTITLE3=Skid Row Joe
TTITLE4=Take Me Back And Try Me One More Time
TTITLE5=How Far Down Can I Go
TTITLE6=I'm A Long Way From Home
TTITLE7=Confessions Of A Broken Man
TTITLE8=My Tears Are Overdue
TTITLE9=I've Been Down That Road Before
TTITLE10=Thy Burdens Are Greater Than Mine
TTITLE11=My Last Two Tens
EXTD=
EXTT0=
EXTT1=
EXTT2=
EXTT3=
EXTT4=
EXTT5=
EXTT6=
EXTT7=
EXTT8=
EXTT9=
EXTT10=
EXTT11=
PLAYORDER=
